<svg version="1.1" xmlns="http://www.w3.org/2000/svg" xmlns:xlink="http://www.w3.org/1999/xlink" width="920" height="700" viewBox="500,105.5,920,700"><defs><clipPath id="clip-1"><rect x="500" y="306.5" width="920" height="298" id="clip-1" fill="none"/></clipPath></defs><g id="document" fill="#ffffff" fill-rule="nonzero" stroke="#000000" stroke-width="0" stroke-linecap="butt" stroke-linejoin="miter" stroke-miterlimit="10" stroke-dasharray="" stroke-dashoffset="0" font-family="none" font-weight="none" font-size="none" text-anchor="none" style="mix-blend-mode: normal"><rect x="610" y="75.35714" transform="scale(1,1.4)" width="700" height="500" id="Shape 1 1" vector-effect="non-scaling-stroke"/></g><g fill="none" fill-rule="nonzero" stroke="none" stroke-width="1" stroke-linecap="butt" stroke-linejoin="miter" stroke-miterlimit="10" stroke-dasharray="" stroke-dashoffset="0" font-family="none" font-weight="none" font-size="none" text-anchor="none" style="mix-blend-mode: normal"><g><g id="stage"><g id="layer1 1"><g clip-path="url(#clip-1)" id="Group 1"><g id="Group 1" fill="#fdcc37"><path d="M1349.7,356.3c-3.4,8 -3.6,8.8 -2,9.9c0.9,0.7 2.2,1.3 2.8,1.3c1.2,0 8.5,-14.5 8.5,-16.8c0,-0.9 -4,-3.4 -5.3,-3.2c-0.1,0 -1.9,4 -4,8.8z" id="Path 1"/><path d="M1328.3,388.9l-6.2,7.3l2.3,2.2l2.4,2.2l6.1,-7.1c3.4,-3.9 6.1,-7.4 6.1,-7.9c0,-0.8 -3.3,-4.1 -4.1,-4.1c-0.2,0 -3.2,3.4 -6.6,7.4z" id="Path 1"/><path d="M733,406.6c-7.6,1.2 -13.1,2.9 -13.6,4.4c-0.3,0.7 -0.1,2.3 0.5,3.4c1.1,1.9 1.4,1.9 5.2,0.6c2.2,-0.8 6.2,-1.7 8.9,-2.1c4.7,-0.6 5,-0.9 5,-3.5c0,-3.5 -0.5,-3.7 -6,-2.8z" id="Path 1"/><path d="M1302.6,413.6c-2.7,2.2 -6.1,4.8 -7.5,5.8c-2.4,1.8 -2.4,2.1 -1.2,4.5c0.8,1.4 1.7,2.6 2.1,2.6c1.4,0 15,-11.2 15,-12.4c0,-0.7 -0.8,-2 -1.7,-2.9c-1.7,-1.4 -2.2,-1.2 -6.7,2.4z" id="Path 1"/><path d="M757.7,414.9c-1.5,2.2 -1.4,2.5 0.8,4.6c1.4,1.3 3.5,4.4 4.7,6.9c1.1,2.5 2.2,4.7 2.3,4.9c0.7,0.9 5.5,-1.2 5.5,-2.4c0,-3.7 -8.6,-16.4 -11.1,-16.4c-0.4,0 -1.4,1.1 -2.2,2.4z" id="Path 1"/><path d="M694.5,427.7c-6.4,7.1 -7.5,9.6 -5,11.4c2.6,2 3.1,1.8 5.6,-1.9c1.2,-1.7 3.8,-4.8 5.6,-6.8c3.1,-3.3 3.3,-3.9 2.1,-5.8c-0.7,-1.1 -1.8,-2.1 -2.4,-2.1c-0.7,0 -3.3,2.4 -5.9,5.2z" id="Path 1"/><path d="M1015.6,425.2c-4.8,0.4 -4.8,0.4 -4.2,3.5c0.3,1.8 0.7,3.2 0.9,3.2c0.1,0.1 4.4,0 9.5,-0.2l9.2,-0.3v-3.5v-3.4l-5.2,0.2c-2.9,0.1 -7.5,0.3 -10.2,0.5z" id="Path 1"/><path d="M1051.4,429c-0.4,1.4 -0.4,2.8 -0.2,3.1c1.1,1 18.3,3.3 19.1,2.5c0.5,-0.5 0.7,-1.9 0.5,-3.2c-0.3,-2.1 -1.1,-2.5 -6.8,-3.5c-10.5,-1.9 -11.9,-1.8 -12.6,1.1z" id="Path 1"/><path d="M980.1,433.5c-4,1.6 -7.5,3.1 -7.8,3.3c-0.4,0.4 1.1,4.2 2.2,5.5c0.1,0.1 2.7,-0.7 5.6,-1.9c3,-1.2 6.9,-2.6 8.7,-3.1c3.2,-0.9 3.8,-2.1 2.6,-5.2c-0.8,-2.2 -2.8,-2 -11.3,1.4z" id="Path 1"/><path d="M1267.3,437.4c-4.6,2.5 -8.3,5.1 -8.3,5.7c0,0.5 0.6,1.9 1.4,2.9c1.2,1.7 1.7,1.6 10,-2.9c8.9,-4.9 8.9,-4.9 5.9,-9.2c-0.6,-0.8 -3.4,0.3 -9,3.5z" id="Path 1"/><path d="M1090.6,437.1c-0.4,1.5 -0.6,2.8 -0.4,2.9c0.2,0.2 4.1,1.8 8.7,3.5c8.1,3.1 8.5,3.2 9.8,1.4c0.7,-1 1.3,-2.3 1.3,-3c0,-1 -15.4,-7.4 -17.9,-7.4c-0.5,0 -1.2,1.2 -1.5,2.6z" id="Path 1"/><path d="M944.8,451.3c-4.3,2.6 -7.8,5 -7.8,5.3c0,0.4 0.8,1.7 1.8,2.9l1.8,2.2l7.4,-4.7c4.1,-2.7 7.7,-5 7.9,-5.2c0.6,-0.5 -1.7,-5.3 -2.6,-5.3c-0.5,0 -4.3,2.1 -8.5,4.8z" id="Path 1"/><path d="M761.7,452.4c-0.9,1.5 -3.4,4.6 -5.6,6.7c-3.9,3.9 -3.9,4 -2,6.2c2.3,2.9 4.3,2 9.2,-4c5.5,-6.8 6.3,-8.9 4.1,-10.5c-2.6,-1.9 -3.8,-1.6 -5.7,1.6z" id="Path 1"/><path d="M1126.6,453.9c-1.5,2.4 -1.5,2.5 3.2,5.9c2.6,2 5.8,4.7 7.1,6.1l2.5,2.6l2.3,-2.2l2.3,-2.2l-2.2,-2.4c-2.9,-3.2 -11.7,-10.2 -12.8,-10.2c-0.4,0 -1.5,1.1 -2.4,2.4z" id="Path 1"/><path d="M1231,454.4c-7.6,2.9 -9.2,4.7 -7.1,8c0.8,1.2 2.3,0.9 9.6,-1.9c4.7,-1.8 8.7,-3.6 8.9,-3.9c0.7,-1.2 -1.4,-5.1 -2.6,-5c-0.7,0 -4.7,1.3 -8.8,2.8z" id="Path 1"/><path d="M682,460.9c0,2.8 3.8,15.7 5,16.9c0.6,0.7 4,-0.4 5.8,-1.8c0.1,-0.1 -0.5,-1.8 -1.3,-3.8c-0.8,-2 -2,-5.9 -2.6,-8.7c-1,-4.6 -1.3,-5 -4,-5c-2.4,0 -2.9,0.4 -2.9,2.4z" id="Path 1"/><path d="M1193,465.5c-8.3,1.6 -8.5,1.7 -8.3,4.5c0.1,1.5 0.4,3 0.7,3.2c0.4,0.4 15.1,-2.2 18.3,-3.2c1.3,-0.4 0.3,-5.8 -1.3,-6.1c-0.5,-0.1 -4.7,0.6 -9.4,1.6z" id="Path 1"/><path d="M912.6,474.5c-4.2,3.3 -7.6,6.4 -7.6,6.9c0,0.4 0.9,1.6 1.9,2.5c1.9,1.7 2.2,1.6 9.3,-4c4,-3.1 7.5,-5.9 7.7,-6c0.2,-0.2 -0.6,-1.5 -1.7,-2.9l-2,-2.5z" id="Path 1"/><path d="M1152,471.9c-5.7,1 -6.5,1.4 -6.8,3.5c-0.2,1.3 0,2.7 0.5,3.2c0.7,0.7 18,-1.5 19,-2.5c0.2,-0.2 0.1,-1.5 -0.3,-3c-0.7,-3 -1.8,-3.1 -12.4,-1.2z" id="Path 1"/><path d="M561.7,476.2c-0.3,1.6 -0.1,3.1 0.5,3.4c1.2,0.7 17.8,3.3 18.2,2.8c0.2,-0.2 0.6,-1.6 1,-3c0.6,-2.7 0.5,-2.7 -8.2,-4.3c-11.2,-2.1 -10.9,-2.1 -11.5,1.1z" id="Path 1"/><path d="M729.5,476.6c-3.3,1.6 -7.2,3.3 -8.7,3.8c-2.5,0.9 -2.7,1.2 -1.7,4c0.6,1.7 1.2,3.1 1.3,3.1c0.6,0 13.4,-5.4 15.9,-6.6c2.6,-1.4 2.7,-1.5 1.2,-4.4c-0.9,-1.7 -1.7,-3 -1.8,-2.9c-0.1,0 -2.9,1.4 -6.2,3z" id="Path 1"/><path d="M1115,480.6c-4.7,1.6 -8.6,2.9 -8.7,2.9c-0.7,0 -0.2,3.6 0.6,4.9c0.8,1.2 2.4,0.9 10,-1.5c8.7,-2.8 9.1,-3 8.5,-5.4c-0.3,-1.4 -0.8,-2.8 -1.2,-3.2c-0.4,-0.3 -4.5,0.7 -9.2,2.3z" id="Path 1"/><path d="M600.8,483.9c-0.3,1.5 -0.3,2.8 0.1,3c1.1,0.7 18.1,3.9 18.5,3.5c0.2,-0.2 0.6,-1.6 1,-3.1c0.6,-2.5 0.3,-2.7 -4.7,-3.8c-2.8,-0.6 -7.3,-1.4 -9.8,-1.7c-4.4,-0.5 -4.6,-0.4 -5.1,2.1z" id="Path 1"/><path d="M1153.5,482.7c-1.1,0.6 -2.2,1.2 -2.4,1.4c-0.2,0.1 0.4,2.2 1.3,4.6c0.8,2.4 2,6.2 2.6,8.5c1,3.9 1.4,4.3 4,4.3c2.2,0 3,-0.5 3,-1.8c0,-3.7 -4.7,-18.2 -5.9,-18.2c-0.3,0 -1.5,0.6 -2.6,1.2z" id="Path 1"/><path d="M640.6,489.1c-1.6,4.1 -0.8,5.1 4.7,5.8c2.8,0.3 7.3,0.6 10,0.6c4.5,0 4.7,-0.1 4.7,-2.9c0,-2.9 0,-2.9 -7.7,-3.5c-4.3,-0.4 -8.5,-0.9 -9.4,-1.2c-0.9,-0.3 -1.9,0.3 -2.3,1.2z" id="Path 1"/><path d="M687.3,488.7c-7.3,1 -7.3,1 -7.3,4v3.1l7.8,-0.6c11.1,-1 12.4,-1.4 12,-4.6c-0.4,-3.1 -1.9,-3.3 -12.5,-1.9z" id="Path 1"/><path d="M880.8,499.4l-7.8,5.8l2.1,2.7l2,2.6l7.5,-5.7c4.1,-3.2 7.4,-6.2 7.4,-6.9c0,-0.6 -0.8,-1.8 -1.8,-2.7c-1.6,-1.4 -2.3,-1.1 -9.4,4.2z" id="Path 1"/><path d="M698.5,495.8c-1.7,1.3 -1.7,1.6 1.3,5.8c1.7,2.4 4.4,6 6,7.9l3.1,3.5l2.1,-2.1l2.2,-2.2l-5.3,-7.1c-3,-3.9 -5.8,-7.1 -6.4,-7.1c-0.6,0 -1.9,0.6 -3,1.3z" id="Path 1"/><path d="M1079.2,501.1c-7,6.4 -7.2,6.7 -5.6,8.5c0.9,1.1 2.1,1.9 2.6,1.9c0.6,0 3.7,-2.5 7.1,-5.5c3.3,-3 6.4,-5.5 6.9,-5.5c0.5,0 0.1,-1.4 -0.9,-3c-0.9,-1.7 -2,-3 -2.3,-3c-0.3,0 -3.8,3 -7.8,6.6z" id="Path 1"/><path d="M848.2,521c-4,2.4 -7.5,4.5 -7.8,4.8c-0.3,0.2 0,1.6 0.7,3c1.3,2.9 1.2,2.9 11.6,-2.7l7.2,-4l-1.5,-2.8c-0.8,-1.5 -1.8,-2.8 -2.2,-2.7c-0.4,0.1 -4,2.1 -8,4.4z" id="Path 1"/><path d="M726.5,524.1c-2,3.1 -2.8,2.4 8.9,8.7l7,3.8l1.2,-2.3c1.9,-3.4 1.9,-3.5 -3.8,-6.4c-2.9,-1.5 -6.5,-3.5 -8,-4.5c-3.3,-2.4 -3.2,-2.4 -5.3,0.7z" id="Path 1"/><path d="M1155,523.3c0,1.6 -2.3,9.1 -4.4,14.3c-0.5,1 0.1,1.9 1.9,2.7c1.5,0.7 3,1 3.4,0.7c1,-0.6 5,-13 5.4,-16.5c0.2,-2.2 -0.3,-2.5 -3,-2.8c-2.7,-0.3 -3.3,0 -3.3,1.6z" id="Path 1"/><path d="M1063,533.5c0,4.6 2.2,12.2 4.1,14.4c0.5,0.5 1.8,0.2 3.2,-0.7l2.4,-1.6l-1.8,-5.3c-1,-2.9 -1.8,-6.8 -1.9,-8.6c0,-2.9 -0.3,-3.2 -3,-3.2c-2.9,0 -3,0.1 -3,5z" id="Path 1"/><path d="M812,535.2c-3.6,0.9 -7.1,1.7 -7.7,1.9c-0.7,0.2 -1.3,1.7 -1.3,3.4c0,2.2 0.5,3 1.8,3c2,0 17.3,-3.7 17.9,-4.4c0.2,-0.2 0.1,-1.5 -0.3,-3c-0.7,-3 -1.2,-3 -10.4,-0.9z" id="Path 1"/><path d="M763.4,539c-0.4,1.4 -0.2,3.1 0.3,3.6c0.6,0.6 5.1,1.3 10.2,1.6l9.1,0.6v-3c0,-3 -0.1,-3.1 -6.2,-3.7c-3.5,-0.4 -7.7,-0.9 -9.5,-1.2c-2.8,-0.5 -3.3,-0.3 -3.9,2.1z" id="Path 1"/><path d="M1134.5,557c-1.6,1.4 -4.9,3.3 -7.3,4.2c-3.9,1.5 -4.3,1.9 -3.7,4.2c0.4,1.4 0.9,2.8 1.1,3c0.8,0.9 7.9,-2.2 13.2,-5.7l5.3,-3.5l-2.2,-2.3c-2.7,-2.9 -2.7,-2.9 -6.4,0.1z" id="Path 1"/><path d="M1085,560.4c-1.6,3 -1.3,3.7 2.8,5.5c3.9,1.7 14.4,4.7 14.9,4.2c0.2,-0.1 0.6,-1.7 0.9,-3.4c0.5,-2.7 0.3,-3.2 -1.2,-3.2c-1.1,0 -5,-1.2 -8.9,-2.5c-3.8,-1.4 -7.1,-2.5 -7.2,-2.5c-0.1,0 -0.7,0.9 -1.3,1.9z" id="Path 1"/></g></g></g></g></g></g></svg>